{"title":"Yamla Pagla Deewana 2 2013 Hindi Movies DVDScr XviD New Source S","uid":8555693,"size":722933760,"categoryP":"video","categoryS":"movies","magnet":"?xt=urn:btih:d836c60e0d03a72852a613116afea059b433dd34&amp;dn=Yamla+Pagla+Deewana+2+2013+Hindi+Movies+DVDScr+XviD+New+Source+S&amp;tr=udp%3A%2F%2Ftracker.openbittorrent.com%3A80&amp;tr=udp%3A%2F%2Fopen.demonii.com%3A1337&amp;tr=udp%3A%2F%2Ftracker.coppersurfer.tk%3A6969&amp;tr=udp%3A%2F%2Fexodus.desync.com%3A6969","seeders":1,"leechers":1,"uploader":"basicssom","files":2,"time":1370759362,"description":"Yamla Pagla Deewana 2 2013 Hindi Movies DVDScr XviD New Source Sample Included ~ â˜»rDXâ˜»\n\nScreen Shots :\n &lt;a href=&quot;\nhttp://myimghosting.serveftp.com/13/YamlaPaglaDeewana2.html&quot; rel=&quot;nofollow&quot; target=&quot;_NEW&quot;&gt;\nhttp://myimghosting.serveftp.com/13/YamlaPaglaDeewana2.html&lt;/a&gt;\n &lt;a href=&quot;\nhttp://myimghost.cwahi.net/YamlaPaglaDeewana2.html&quot; rel=&quot;nofollow&quot; target=&quot;_NEW&quot;&gt;\nhttp://myimghost.cwahi.net/YamlaPaglaDeewana2.html&lt;/a&gt;\n &lt;a href=&quot;\nhttp://users2.jabry.com/myimghost/YamlaPaglaDeewana2/YamlaPaglaDeewana2.jpg&quot; rel=&quot;nofollow&quot; target=&quot;_NEW&quot;&gt;\nhttp://users2.jabry.com/myimghost/YamlaPaglaDeewana2/YamlaPaglaDeewana2.jpg&lt;/a&gt;\n\nFormat                                   : MPEG-PS\nFile size                                : 673 MiB\nDuration                                 : 2h 24mn\nOverall bit rate mode                    : Variable\nOverall bit rate                         : 650 Kbps\n\nVideo\nID                                       : 224 (0xE0)\nFormat                                   : MPEG Video\nFormat version                           : Version 2\nFormat profile                           : Main@Main\nFormat settings, BVOP                    : Yes\nFormat settings, Matrix                  : Default\nFormat settings, GOP                     : Variable\nDuration                                 : 2h 24mn\nBit rate mode                            : Variable\nBit rate                                 : 509 Kbps\nMaximum bit rate                         : 9 672 Kbps\nWidth                                    : 352 pixels\nHeight                                   : 288 pixels\nDisplay aspect ratio                     : 4:3\nFrame rate                               : 25.000 fps\nStandard                                 : PAL\nColor space                              : YUV\nChroma subsampling                       : 4:2:0\nBit depth                                : 8 bits\nScan type                                : Progressive\nCompression mode                         : Lossy\nBits/(Pixel*Frame)                       : 0.201\nStream size                              : 527 MiB (78%)\n\nAudio\nID                                       : 192 (0xC0)\nFormat                                   : MPEG Audio\nFormat version                           : Version 1\nFormat profile                           : Layer 2\nDuration                                 : 2h 24mn\nBit rate mode                            : Constant\nBit rate                                 : 128 Kbps\nChannel(s)                               : 2 channels\nSampling rate                            : 48.0 KHz\nCompression mode                         : Lossy\nStream size                              : 133 MiB (20%)\n\nMenu","torrent":{"xt":"urn:btih:d836c60e0d03a72852a613116afea059b433dd34","amp;dn":"Yamla+Pagla+Deewana+2+2013+Hindi+Movies+DVDScr+XviD+New+Source+S","amp;tr":["udp%3A%2F%2Ftracker.openbittorrent.com%3A80","udp%3A%2F%2Fopen.demonii.com%3A1337","udp%3A%2F%2Ftracker.coppersurfer.tk%3A6969","udp%3A%2F%2Fexodus.desync.com%3A6969"],"infoHash":"d836c60e0d03a72852a613116afea059b433dd34","infoHashBuffer":{"type":"Buffer","data":[216,54,198,14,13,3,167,40,82,166,19,17,106,254,160,89,180,51,221,52]},"announce":[],"urlList":[]}}